<svg width="22" height="23" viewBox="0 0 22 23" fill="none" xmlns="http://www.w3.org/2000/svg">
<path d="M9.89008 9.99045C9.89008 9.01045 9.09008 8.21045 8.11008 8.21045C7.13008 8.21045 6.33008 9.01045 6.33008 9.99045C6.33008 10.9704 7.13008 11.7704 8.11008 11.7704C9.09008 11.7704 9.89008 10.9704 9.89008 9.99045ZM7.14008 9.99045C7.14008 9.45045 7.58008 9.02045 8.11008 9.02045C8.65008 9.02045 9.08008 9.46045 9.08008 9.99045C9.08008 10.5304 8.64008 10.9604 8.11008 10.9604C7.57008 10.9704 7.14008 10.5304 7.14008 9.99045Z" fill="url(#paint0_linear_1432_28110)"/>
<path d="M13.7001 12.6104C12.8001 12.6104 12.0801 13.3404 12.0801 14.2304C12.0801 15.1304 12.8101 15.8504 13.7001 15.8504C14.6001 15.8504 15.3201 15.1204 15.3201 14.2304C15.3201 13.3304 14.5901 12.6104 13.7001 12.6104Z" fill="url(#paint1_linear_1432_28110)"/>
<path d="M15.6701 9.20037L13.2301 7.78037C13.0701 7.69037 12.9501 7.76037 12.9501 7.94037V8.85037H12.6501C12.4701 8.84037 11.6201 8.82037 11.0101 9.38037C10.7401 9.63037 10.4301 10.0804 10.4301 10.8504V13.3804C10.4301 13.3904 10.4301 13.4004 10.4301 13.4104C10.4301 13.4104 10.4501 13.8504 10.1901 14.1204C10.0301 14.2904 9.7701 14.3804 9.4201 14.3804H6.9201V15.3804H9.4201C10.0601 15.3804 10.5701 15.1804 10.9301 14.8004C11.4401 14.2504 11.4401 13.5204 11.4301 13.3604V10.8404C11.4301 10.5104 11.5101 10.2704 11.6901 10.1104C11.9601 9.85037 12.4401 9.83037 12.5901 9.84037C12.6001 9.84037 12.6201 9.84037 12.6301 9.84037H12.9401V10.7504C12.9401 10.9304 13.0701 11.0004 13.2201 10.9104L15.6701 9.50037C15.8301 9.43037 15.8301 9.29037 15.6701 9.20037Z" fill="#06273F"/>
<path d="M11.04 18.0399C10.9 18.0399 10.76 18.0299 10.62 18.0199C10.59 18.0199 10.55 18.0199 10.52 18.0099C10.38 17.9999 10.24 17.9799 10.11 17.9599C9.97 17.9399 9.84 17.9099 9.71 17.8799C9.68 17.8699 9.64 17.8699 9.61 17.8599C9.48 17.8299 9.35 17.7899 9.22 17.7499C9.07 17.7199 8.95 17.6799 8.82 17.6299C8.79 17.6199 8.76 17.6099 8.73 17.5899C8.61 17.5399 8.48 17.4899 8.36 17.4299C8.24 17.3699 8.12 17.3099 8.01 17.2399C7.98 17.2299 7.96 17.2099 7.93 17.1899C7.7 17.0499 7.48 16.8999 7.27 16.7399C7.25 16.7199 7.22 16.6999 7.2 16.6899C6.99 16.5199 6.79 16.3399 6.61 16.1499C6.59 16.1299 6.57 16.1099 6.55 16.0899C6.37 15.8899 6.19 15.6899 6.04 15.4699C6.02 15.4499 6 15.4299 5.99 15.4099C5.84 15.1899 5.69 14.9599 5.57 14.7199C5.56 14.6999 5.55 14.6699 5.53 14.6499C5.47 14.5299 5.41 14.3999 5.36 14.2799C5.12 13.6999 4.96 13.0799 4.9 12.4299H6.53L3.76 7.62988L1 12.4199H2.67C2.72 13.2899 2.91 14.1299 3.21 14.8999V14.9099C3.37 15.3199 3.56 15.7199 3.78 16.0999L3.79 16.1099C3.9 16.2999 4.02 16.4799 4.14 16.6599L4.15 16.6699C4.4 17.0199 4.67 17.3499 4.97 17.6699C4.98 17.6799 4.99 17.6899 5 17.7099C5.15 17.8599 5.3 18.0099 5.45 18.1499C5.46 18.1599 5.46 18.1599 5.47 18.1699C5.63 18.3099 5.79 18.4399 5.96 18.5699L5.97 18.5799C6.13 18.6999 6.3 18.8199 6.48 18.9299C6.5 18.9499 6.53 18.9599 6.55 18.9799C6.72 19.0899 6.9 19.1899 7.08 19.2899C7.09 19.2999 7.11 19.2999 7.12 19.3099C7.29 19.3999 7.47 19.4899 7.65 19.5699C7.67 19.5799 7.69 19.5899 7.72 19.5999C7.9 19.6799 8.09 19.7499 8.28 19.8199C8.32 19.8299 8.35 19.8399 8.39 19.8599C8.58 19.9199 8.77 19.9799 8.97 20.0299C8.98 20.0299 9 20.0399 9.01 20.0399C9.2 20.0899 9.39 20.1299 9.58 20.1599C9.62 20.1699 9.65 20.1699 9.69 20.1799C9.89 20.2099 10.09 20.2399 10.29 20.2599C10.33 20.2599 10.37 20.2699 10.41 20.2699C10.62 20.2899 10.83 20.2999 11.04 20.2999C13.41 20.2999 15.55 19.3099 17.08 17.7299L15.9 15.6899C14.77 17.1099 13.01 18.0399 11.04 18.0399Z" fill="#06273F"/>
<path d="M19.41 11.35C19.37 10.71 19.26 10.09 19.08 9.5C19.02 9.29 18.94 9.08 18.86 8.87C18.86 8.86 18.86 8.86 18.85 8.85C18.69 8.44 18.5 8.04 18.28 7.67C18.28 7.66 18.27 7.66 18.27 7.65C18.16 7.46 18.04 7.28 17.92 7.1C17.92 7.09 17.91 7.09 17.91 7.09C17.66 6.74 17.39 6.41 17.1 6.1C17.09 6.09 17.08 6.07 17.06 6.06C16.91 5.91 16.76 5.76 16.61 5.63C16.6 5.62 16.59 5.62 16.59 5.61C16.43 5.47 16.27 5.34 16.1 5.21L16.09 5.2C15.93 5.08 15.76 4.96 15.59 4.85C15.57 4.83 15.54 4.82 15.51 4.8C15.34 4.69 15.17 4.59 14.99 4.49C14.98 4.48 14.96 4.48 14.95 4.47C14.78 4.38 14.6 4.29 14.43 4.22C14.41 4.21 14.38 4.2 14.36 4.19C14.18 4.11 13.99 4.04 13.81 3.97C13.77 3.96 13.74 3.95 13.7 3.93C13.51 3.87 13.32 3.81 13.12 3.76C13.11 3.76 13.09 3.75 13.08 3.75C12.89 3.7 12.7 3.66 12.51 3.63C12.47 3.62 12.44 3.62 12.4 3.61C12.2 3.58 12.01 3.55 11.81 3.54C11.77 3.54 11.73 3.53 11.68 3.53C11.47 3.51 11.27 3.5 11.06 3.5H11.05C8.68001 3.5 6.54001 4.49 5.01001 6.07L6.19001 8.11C7.32001 6.66 9.08001 5.73 11.05 5.73H11.06C11.2 5.73 11.33 5.74 11.47 5.75C11.51 5.75 11.54 5.76 11.58 5.76C11.72 5.77 11.85 5.79 11.99 5.81H12C12.13 5.83 12.26 5.86 12.39 5.89C12.42 5.9 12.46 5.91 12.49 5.91C12.62 5.94 12.75 5.98 12.88 6.02H12.89C13.02 6.06 13.14 6.1 13.26 6.15C13.29 6.16 13.32 6.17 13.35 6.19C13.47 6.24 13.6 6.29 13.72 6.35C13.72 6.35 13.72 6.35 13.73 6.35C13.85 6.41 13.96 6.47 14.08 6.53C14.11 6.55 14.13 6.56 14.16 6.58C14.28 6.65 14.39 6.72 14.5 6.79C14.61 6.86 14.72 6.94 14.82 7.02C14.84 7.04 14.87 7.06 14.89 7.08C15.1 7.25 15.3 7.43 15.48 7.62C15.5 7.64 15.52 7.66 15.54 7.68C15.72 7.88 15.89 8.08 16.05 8.3C16.07 8.32 16.08 8.34 16.1 8.37C16.25 8.59 16.39 8.82 16.52 9.06C16.53 9.08 16.55 9.11 16.56 9.13C16.62 9.25 16.68 9.38 16.73 9.5C16.97 10.08 17.13 10.7 17.19 11.35H15.56L18.32 16.14L21.08 11.35H19.41Z" fill="url(#paint2_linear_1432_28110)"/>
<defs>
<linearGradient id="paint0_linear_1432_28110" x1="6.6161" y1="12.1919" x2="10.708" y2="9.417" gradientUnits="userSpaceOnUse">
<stop stop-color="#41648F"/>
<stop offset="1" stop-color="#067EB1"/>
</linearGradient>
<linearGradient id="paint1_linear_1432_28110" x1="12.3404" y1="16.2339" x2="16.0645" y2="13.7085" gradientUnits="userSpaceOnUse">
<stop stop-color="#41648F"/>
<stop offset="1" stop-color="#067EB1"/>
</linearGradient>
<linearGradient id="paint2_linear_1432_28110" x1="6.30115" y1="17.6364" x2="21.7688" y2="4.30062" gradientUnits="userSpaceOnUse">
<stop stop-color="#41648F"/>
<stop offset="1" stop-color="#067EB1"/>
</linearGradient>
</defs>
</svg>
